<?xml version="1.0" encoding="UTF-8" standalone="no"?>
<!DOCTYPE svg PUBLIC "-//W3C//DTD SVG 1.1//EN" "http://www.w3.org/Graphics/SVG/1.1/DTD/svg11.dtd">
<svg version="1.1" xmlns="http://www.w3.org/2000/svg" xmlns:xlink="http://www.w3.org/1999/xlink" preserveAspectRatio="xMidYMid meet" viewBox="0 0 600 600" width="600" height="600"><defs><path d="M602.63 416.67C595.6 430.32 591.2 438.86 589.44 442.27C574.81 470.66 550.81 493.12 521.51 505.84C506.42 512.39 530.57 501.91 521.51 505.84C481.07 523.39 434.31 502.27 420.74 460.32C416.33 446.68 423.87 470.01 418.33 452.86C407.12 418.2 371.78 397.38 336.03 404.39C315.85 408.35 348.56 401.94 336.03 404.39C277.36 415.9 218.73 384.39 195.95 329.12C187.33 308.2 203.78 348.13 195.95 329.12C170.25 266.76 187.63 194.95 239 151.25C259.71 133.63 221.77 165.91 239 151.25C304.1 95.86 391.67 74.74 474.86 94.36C488.62 97.6 499.43 97.89 507.31 95.22C548.76 81.19 580.53 49.45 602.63 0L602.63 416.67Z" id="a1BbG4bu2M"></path><linearGradient id="gradientd2L023f3X1" gradientUnits="userSpaceOnUse" x1="393.42" y1="0" x2="393.42" y2="512.04"><stop style="stop-color: #a13aff;stop-opacity: 1" offset="0%"></stop><stop style="stop-color: #ff3860;stop-opacity: 0.73" offset="100%"></stop></linearGradient><path d="M171.68 575.55C125.1 584.68 78.56 559.67 60.48 515.79C53.63 499.18 66.7 530.88 60.48 515.79C43.21 473.89 70.36 427.02 115.3 421.15C136.7 418.36 97.49 423.48 115.3 421.15C171.91 413.76 222.03 458.02 221.7 515.1C221.65 525.24 221.82 493.52 221.7 515.1C221.54 544.59 200.61 569.87 171.68 575.55C155.66 578.69 181.63 573.59 171.68 575.55Z" id="dq8ukM91J"></path><linearGradient id="gradienta12fwH5Li" gradientUnits="userSpaceOnUse" x1="138.49" y1="420.29" x2="138.49" y2="577.42"><stop style="stop-color: #a13aff;stop-opacity: 1" offset="0%"></stop><stop style="stop-color: #ff3860;stop-opacity: 0.73" offset="100%"></stop></linearGradient></defs><g><g><g><use xlink:href="#a1BbG4bu2M" opacity="1" fill="url(#gradientd2L023f3X1)"></use><g><use xlink:href="#a1BbG4bu2M" opacity="1" fill-opacity="0" stroke="#000000" stroke-width="0" stroke-opacity="1"></use></g></g><g><use xlink:href="#dq8ukM91J" opacity="1" fill="url(#gradienta12fwH5Li)"></use><g><use xlink:href="#dq8ukM91J" opacity="1" fill-opacity="0" stroke="#000000" stroke-width="0" stroke-opacity="1"></use></g></g></g></g></svg>